<?xml version="1.0" encoding="utf-8"?>
<!-- Generator: Adobe Illustrator 26.0.3, SVG Export Plug-In . SVG Version: 6.00 Build 0)  -->
<svg version="1.1" xmlns="http://www.w3.org/2000/svg" xmlns:xlink="http://www.w3.org/1999/xlink" x="0px" y="0px"
	 viewBox="0 0 730 335.8" style="enable-background:new 0 0 730 335.8;" xml:space="preserve">
<style type="text/css">
	.st0{fill:#B2B2B2;}
	.st1{fill:#C1C1C1;}
	.st2{font-family:'FilsonSoftRegular';}
	.st3{font-size:53.3122px;}
	.st4{fill:#2DC5C9;}
</style>
<g id="Layer_1">
	<path d="M144.3,175.6v0.2l0,0C144.3,175.8,144.3,175.7,144.3,175.6z"/>
	<path d="M144.3,175.6v0.2l0,0C144.3,175.8,144.3,175.7,144.3,175.6z"/>
	<path d="M245.8,171.3v0.2C245.8,171.5,245.8,171.4,245.8,171.3L245.8,171.3z"/>
	<path d="M152.1,173.9c-0.1-0.9-0.1-1.8-0.1-2.8C152,172.1,152,173,152.1,173.9z"/>
	<path d="M153.4,183.8c-0.2-0.9-0.4-1.8-0.5-2.7C153,182,153.2,182.9,153.4,183.8z"/>
	<path d="M152.1,173.9c-0.1-0.9-0.1-1.8-0.1-2.8C152,172.1,152,173,152.1,173.9z"/>
	<path d="M153.4,183.8c-0.2-0.9-0.4-1.8-0.5-2.7C153,182,153.2,182.9,153.4,183.8z"/>
	<path d="M245.8,171.3v0.2C245.8,171.5,245.8,171.4,245.8,171.3L245.8,171.3z"/>
	<path d="M58.1,96.3"/>
	<path class="st0" d="M681,57.7c-2.9-0.3-13.1-1-21.1,5.7c-2.6,2.2-4.2,4.5-4.9,5.6c-4.2,6.6-4,13.5-3.8,16.2c0,10.8,0,21.6,0,32.4
		c-3.1-1.9-7.5-4.1-13-5.9c-6-1.9-12.3-2.9-18.9-2.9c-18.5,0-35.2,8.1-46.6,21c-0.2,0.3-0.5,0.5-0.7,0.8
		c-11.4-13.3-28.3-21.8-47.2-21.8c-11.8,0-22.8,3.3-32.1,9V109h-30.3v8.6c-9.2-5.5-20.1-8.6-31.6-8.6c-18.5,0-35.2,8.1-46.6,21
		c-9.5,10.7-15.2,24.7-15.5,40.1c0,0.1,0,0.2,0,0.2v0.1c0,0.2,0,0.4,0,0.5c0,0.2,0,0.4,0,0.5c0.1,15.1,5.6,28.9,14.7,39.6
		c4.4,5.2,9.6,9.6,15.5,13.1c9.3,5.6,20.2,8.8,31.9,8.8c3.8,0,10.5-0.3,18.3-2.7c4.1-1.3,11-3.8,18.2-9c3.4-2.4,5.9-4.8,7.8-6.6
		c-3.2-3.4-7.5-8.8-10.7-16.5c-2.2-5.2-3.3-9.9-3.8-13.6c-3.6,5-7.6,8.1-10.4,10.1c-3.1,2.3-8.1,5.9-14.9,7c-2.1,0.3-4,0.3-4.5,0.3
		c-12.8,0-23.8-7.6-28.9-18.5h62.2c2.1,10.3,6.8,19.7,13.4,27.5c0.2,0.2,0.4,0.4,0.6,0.7c0,0,0,0,0.1,0.1c4.3,4.9,9.3,9.1,14.8,12.4
		V169l0,0c0.6-17.1,14.6-30.8,31.8-30.8c17.2,0,31.3,13.7,31.8,30.8l0,0v55.1c5.8-3.5,11-7.9,15.4-13.1c4.4,5.1,9.5,9.5,15.3,13
		c9.3,5.6,20.2,8.8,31.9,8.8c34.3,0,62-27.8,62-62c0-1.2,0-2.5-0.1-3.7h0.2C681.3,130.7,681.2,94.2,681,57.7z M401.3,158.4
		c4.7-11.8,16.2-20.1,29.6-20.1c14.4,0,24.4,9.7,29,20.1H401.3z M492.8,174.7v0.2l0,0C492.8,174.9,492.8,174.8,492.8,174.7v-8.1
		c0.1,1.4,0.1,2.9,0.1,4.3C493,172.2,492.9,173.5,492.8,174.7z M619.4,201.8c-17.6,0-31.9-14.3-31.9-31.9s14.3-31.9,31.9-31.9
		c17.6,0,31.9,14.3,31.9,31.9S637,201.8,619.4,201.8z"/>
	<path d="M157.8,132.7"/>
	<text transform="matrix(1 0 0 1 279.2996 284.0901)" class="st1 st2 st3">w e b  d e s i g n</text>
	<path d="M695.2,93.8"/>
	<path class="st4" d="M306.9,109c-18.5,0-35.2,8.1-46.6,21c-0.1,0.1-0.2,0.2-0.3,0.4c-0.3-0.4-0.7-0.7-1-1.1c-0.5,0.6-1.2,0.8-1.7,1
		c-0.2,0-0.8,0.2-1.6,0.2c-0.6,0-1-0.2-1.3-0.3c-1.2-0.2-2.2,0.3-3.5,1c-1.2,0.7-2.1,1.1-2.4,2c-0.1,0.2-0.4,1.2,0.1,1.9
		c0.3,0.4,0.8,0.7,3,0.7c1.8,0.1,3.3,0.1,5.5-0.4c1.5-0.3,2.7-0.7,2.9-0.8c2.1-0.8,2.3-1.3,3.6-1.4c0.6-0.1,2.5-0.3,3.4,0.9
		c0.8,1.1,0.5,2.7-0.2,3.7c-1.3,1.6-4,1.2-4.3,1.1c-0.8-0.1-1-0.3-3.1-0.8c-0.8-0.2-1.3-0.3-1.8-0.4c-1.5-0.2-2.7-0.1-4,0
		c-0.6,0.1-2.4,0.2-4.4,1c-0.4,0.1-0.9,0.4-1.2,0.9c-0.4,0.5-0.5,1.4-0.2,2c0.2,0.3,0.4,0.5,3.1,1.6c1.7,0.7,2.2,0.8,2.8,0.7
		c0.4-0.1,0.6-0.2,1.4-0.3c0.9-0.1,1.3-0.2,1.7,0c0.9,0.4,1.1,1.4,1.2,1.6c0.2,0.8,0.1,2-0.7,2.6c-0.6,0.4-1.4,0.3-1.9,0.2
		c-0.9-0.2-1.3-0.7-2.4-1.4c-0.1-0.1-1.3-0.9-2.8-1.6c-1.4-0.7-2.3-0.8-3.6-1.1c-0.6-0.1-1-0.2-1.4,0c-0.1,0-1.2,0.4-1.4,1.5
		c-0.2,0.8,0.2,1.8,0.8,2c0.3,0.1,0.5,0,0.9,0c0.8,0.1,1.7,0.7,1.9,1.7c0.2,1.1-0.4,2.2-1.4,2.6c-1.2,0.5-2.8-0.2-3.3-1.7
		c-0.3-1-0.8-2.4-1.8-3.8c-0.5-0.7-1-1.2-1.5-1.6c-0.8-1.8-0.8-3.3-0.8-4.1c0.2-3.5,2.5-6.7,4.9-7.9c0.4-0.2,0.7-0.3,2.2-1.1
		c1.3-0.6,2.1-1.1,3.1-1.7c1-0.6,1.7-1.1,2.4-1.5c2.3-1.6,2.4-1.9,3.6-2.4c0.2-0.1,0.4-0.2,0.6-0.2c-11.1-10.4-26-16.8-42.4-16.8
		c-19,0-35.9,8.5-47.3,21.9c-5.3,6.2-9.3,13.4-11.8,21.4c-1.2,3.6-2,7.4-2.4,11.3c-0.3,2.4-0.4,4.9-0.4,7.5c0,0.1,0,0.3,0,0.4v0.1
		c0,0.9,0,1.8,0.1,2.8c-0.1-0.9-0.1-1.8-0.1-2.8c0,0.1,0,0.2,0,0.3c0,17.6-14.3,31.9-31.9,31.9s-31.9-14.3-31.9-31.9v-8.4
		c0-8.8-0.1-17.5-0.1-26.3c22.6,0,45.2,0,67.8,0c2.2-4,5.5-9.2,10.7-14.3c7.7-7.6,15.8-11.6,20.9-13.7c-33.2-0.1-66.4-0.3-99.7-0.4
		c-0.1-4.7-0.2-9.5-0.4-14.3C86.3,89,86.2,83.8,86,78.5c-0.7-2.8-2.7-9.2-8.6-14.7c-7.9-7.4-17.3-8-19.9-8.1c0,17.6,0,35.2,0,52.9
		c-6.7,0-13.4,0-20.1,0c-5.3,0-10.6,0-15.9,0c-0.3,1.4-2.5,11,3.6,19.2c4.3,5.8,11,8.8,16.4,9.1c0.3,0,0.3,0,8.2,0
		c3.3,0,6.1,0,7.8,0c0,1.3,0,16.7,0,18c0,17,0,16.9,0,17.2c0.2,8.8,3.1,29.8,19.9,45.4c16.7,15.5,36.9,16.1,41.8,16.2
		c8,0,14.5-1.6,18.6-2.8c11.3-3.6,21.3-10.3,28.7-19.1c11.4,12.9,28,21,46.6,21c10.6,0,20.6-2.7,29.4-7.4c-1.9-1.2-5.1-2.3-6.4-2.9
		c-1.4-0.6-4.4-2.3-10.1-5.8c-4-2.5-4.9-2.8-6.2-3.7c-2.9-2-8.3-6.4-13.6-14.5c-1.2,0.6-2.5,1.2-3.9,1.7c-4.3,1.7-8.2,2.3-11.9,2.9
		c-5.8,1-7.7,0.7-8.6,0.4c-0.1,0-0.2-0.1-0.3-0.1c-1.9-0.7-4.5-2.4-7-6.4c3.9-0.6,8.5-1.7,13.3-4c1.8-0.9,3.4-1.8,4.9-2.7
		c10.2-6.3,15.5-9.2,19.2-13c5.8-5.9,8.5-11.9,9.2-13.5c1-2.2,1.1-2.9,2.1-5.5c1.4-3.9,3.9-9.3,8.1-15.5
		c-4.3,4.9-10.2,12.4-16.6,22.5c-3.1,4.9-2.9,5-4.8,7.7c-8.7,12-19.5,18-25.8,20.7c-2.3,1-5.5,2.3-9.7,3.3c-1.4-2.3-2.4-4.5-2.9-5.9
		c-0.6-0.1-1.5-0.2-2.5-0.5c-5.1-1.4-8.5-5.2-9.1-5.9c-4.8-5.5-5.2-11.8-5.2-13.1c0.3,1.7,1.1,4.9,3.4,8.3c1,1.4,3.8,5.3,8.6,6.9
		c1.2,0.4,4.8,1.5,8.4-0.2c2.7-1.3,4.1-3.6,4.6-4.7c2.3-5,0.3-10.4-0.1-11.5c-2.4-6.4-7.8-9.4-9.6-10.3c-1.5-0.8-4.4-2.1-7.6-1.3
		c-2.4,0.6-3.9,2-4.6,2.8c0.2-1,0.6-3,2.2-4.7c1.1-1.2,2.3-1.7,3.5-2.1c0.8-0.3,3.1-1.1,6.4-0.8c2.2,0.2,4,0.9,5.4,1.5
		c1.7-2.5,3.8-5.1,6.2-7.7c3.9-4.2,7.8-7.5,11.4-10c-0.4-1-1.1-2.5-1.3-4.5c-0.7-6.1,3.1-9.8,3.4-10.1c0.7-0.7,2.2-1.8,4.4-2.3
		c-0.5,0.7-1.1,1.8-1.6,3.2c-0.3,0.8-1,3.1-0.9,5.9c0.2,4.2,2.3,7.4,3.1,8.6c0.9,1.3,4.6,6.9,10.9,7.8c0.4,0,7.5,1,10.9-4.7
		c2.4-4.1,1.3-8.9,1-10.2c-1.1-4.8-4-7.9-5-8.8c-3-2.9-6.1-3.9-7.4-4.2c1.5,0.2,4.3,0.8,7.3,2.9c1.3,0.9,5.2,3.8,7,9.1
		c1.2,3.6,0.8,6.6,0.8,8c0.8,0.1,2.1,0.4,3.5,1.1c1.2,0.7,2.2,1.5,3,2.4c0,0,0,0,0,0c2.8,3.2,3.9,7.4,4.1,8.2
		c0.7,2.9,0,5.7-1.2,11.5c-0.2,1-0.7,3.4-1.4,5.7c-0.4,1.4-2.5,7.8-8.4,15.3c-2.2,2.9-7.3,9.2-15.7,14.1c0.6-0.2,1.2-0.4,1.8-0.7
		c1.8-0.7,3.3-1.5,4.6-2.2c0.2,2.8,1.1,4.6,1.6,5.6c0.7,1.2,1.6,2.2,1.9,2.6c0.9,1,1.3,1.5,2,2c1,0.6,2.1,0.9,2.9,1
		c0.5-0.9,0.8-2,0.4-2.9c-0.4-0.9-1.3-0.8-1.6-1.7c-0.3-0.9,0.4-2.3,1.4-2.9c0.1,0,1.3-0.7,2.5-0.2c1.2,0.5,1.5,2,1.6,2.4
		c0.5,2.8-2,4.4-1.3,5.7c0.8,1.5,4.7,0.8,5.1,0.7c1-0.2,3.8-0.7,5.1-2.9c0.6-1,0.6-2,1.7-2.7c0.3-0.1,0.9-0.5,1.7-0.5
		c1.6,0,3.3,1.4,3.4,3.1c0,1.1-0.7,2.2-1.6,2.8c-1.6,1-2.8-0.2-5.4,0.6c-0.5,0.1-2.5,0.7-2.6,1.9c-0.1,0.8,0.6,1.5,1,1.9
		c0.6,0.6,1.3,0.9,2,1.2c1.8,0.6,3.4,0.9,3.7,0.9c5.8,0.8,7.1,2,8.4,1.2c1.5-1,2-1,2.9-1c0,0,1,0,1.9,0.3c0.2,0.1,0.4,0.2,0.6,0.3
		c0,0,0.1,0,0.2,0.1c1.9,1.2,2.3,2.2,2.3,2.2c0.6,1.4-0.3,3.8-1.9,4.3c-1.6,0.6-3.4-0.7-3.7-0.9c0-0.1-0.1-0.1-0.1-0.1
		c-0.9-0.6-1-1-2-1.6c-0.1-0.1-0.3-0.1-0.4-0.2c-1.1-0.5-1.9-0.8-1.9-0.8c-1.2-0.4-2.9-0.7-4.1-0.9c-2.7-0.5-3.5-0.8-5.1-0.8
		c-1.5,0-2.1,0.2-2.5,0.6c-0.6,0.6-0.7,1.6-0.5,2.3c0.3,1,1.1,1.5,2.7,2.5c1.4,0.9,2.6,1.4,3,1.5c0.8,0.3,2,0.8,3.6,0.9
		c2.6,0.3,3.5-0.6,4.7,0.2c0.9,0.6,1.2,1.6,1.3,1.8c0.1,0.2,0.5,1.8-0.4,3.1c-1,1.4-2.8,1.7-4,1.3c-0.5-0.2-0.9-0.5-1.2-0.7
		c-0.1,18.7-0.2,37.4-0.2,56.1c3.3,0.4,11.5,0.9,19.3-4c1.4-0.9,4.5-2.9,7-6.6c4-5.9,4-12.2,4-16.9c0-10.3,0.1-20.8,0.1-32.6
		c3,1.8,7.3,4,12.7,5.8c6,2,12.5,3,19.1,3c34.3,0,62-27.8,62-62C368.9,136.8,341.1,109,306.9,109z M158.2,172.6
		c0.4,1.3,1.4,3.4,3.3,5.6c2.5,2.7,5.2,3.7,6.4,4.1c-1.7,0.1-2.9-0.1-3.9-0.5c-0.4-0.2-1.6-0.7-2.9-1.8c-0.6-0.5-1.7-1.4-2.4-2.9
		c-0.2-0.5-0.6-1.3-0.7-2.4C157.9,173.7,158.1,173,158.2,172.6z M215.1,124.5c3.1,2.7,3.3,7.5,2.8,7.6c-0.4,0.1-1.2-3.7-4.1-5.9
		c-2.6-1.9-5.6-1.8-7.6-1.5c0.5-0.5,1.4-1.4,3-1.7C209.4,122.9,212.5,122.3,215.1,124.5z M307.4,202.1c-17.9,0-32.4-14.5-32.4-32.4
		c0-17.9,14.5-32.4,32.4-32.4c17.9,0,32.4,14.5,32.4,32.4C339.8,187.6,325.3,202.1,307.4,202.1z"/>
	<path d="M700.2,297.8"/>
</g>
<g id="Layer_2">
</g>
</svg>
